<svg width="148" height="148" xmlns="http://www.w3.org/2000/svg" xmlns:xlink="http://www.w3.org/1999/xlink" xml:space="preserve" overflow="hidden"><defs><clipPath id="clip0"><path d="M-139.812 229.025-67.2583 155.319 6.44729 227.873-66.1064 301.578Z" fill-rule="nonzero" clip-rule="nonzero"/></clipPath><clipPath id="clip1"><path d="M-139.812 229.025-67.2584 155.319 6.44728 227.873-66.1064 301.578Z" fill-rule="evenodd" clip-rule="evenodd"/></clipPath><clipPath id="clip2"><path d="M-139.812 229.025-67.2584 155.319 6.44728 227.873-66.1064 301.578Z" fill-rule="evenodd" clip-rule="evenodd"/></clipPath></defs><g transform="translate(140 -154)"><g><g clip-path="url(#clip0)"><g clip-path="url(#clip1)"><g clip-path="url(#clip2)"><path d="M-93.0225 212.053C-90.3175 209.751-86.9214 208.418-83.3727 208.265-82.5279 208.232-81.667 208.168-80.7901 208.073-76.4903 207.604-72.6599 204.514-69.7704 201.802L-69.4067 248.359-72.0414 252.188-71.9114 268.697-66.0809 260.226-60.1177 268.604-60.2492 252.095-62.9439 248.31-63.3108 201.622C-60.3635 204.319-56.4331 207.437-52.0594 207.844-51.2269 207.919-50.4055 207.969-49.5952 207.993-45.2409 208.129-41.1284 210.027-38.199 213.252-37.4059 214.032-36.5773 214.872-35.8139 215.651-35.264 216.213-34.7341 216.753-34.2557 217.231L-32.7085 218.773C-29.8211 221.822-26.6838 224.625-23.3293 227.151L-22.5526 227.687-25.1357 228.882-25.1088 228.908-59.9533 245.08-57.4112 248.651-21.1883 231.836C-17.9983 233.813-14.0144 234.004-10.65 232.341-8.48414 231.335-7.54443 228.763-8.55101 226.597-8.78473 226.094-9.11306 225.641-9.51806 225.262-10.8663 224.082-12.7858 223.814-14.4059 224.579-17.2941 225.721-21.389 220.769-26.8378 213.672-32.6091 206.152-39.1501 197.63-48.1466 195.083-50.8225 194.334-53.6046 194.038-56.3781 194.206-58.7867 194.473-61.2153 193.928-63.2794 192.658L-63.3781 192.605-63.4544 182.906-58.0002 182.863-66.7158 170.619-75.2413 182.995-69.9219 182.953-69.844 192.653-69.9418 192.708C-71.9864 194.011-74.4072 194.594-76.8209 194.366-79.5965 194.242-82.3732 194.582-85.0367 195.373-93.9943 198.064-100.404 206.684-106.051 214.294-111.39 221.477-115.404 226.497-118.312 225.396-119.917 224.665-121.8 224.939-123.129 226.097-124.878 227.73-124.972 230.472-123.339 232.221-122.945 232.642-122.471 232.981-121.945 233.217-118.555 234.826-114.574 234.572-111.416 232.546L-74.9341 248.788-72.4493 245.178-110.027 228.294-109.302 227.777C-105.93 225.154-102.783 222.255-99.8918 219.11L-98.4742 217.644C-98.0102 217.163-97.4972 216.619-96.9646 216.053-96.1917 215.236-95.3516 214.347-94.552 213.535-94.1733 213.121-93.7741 212.727-93.3561 212.354Z" fill="#0F9ED5" fill-rule="nonzero" fill-opacity="1"/></g></g></g></g></g></svg>