<svg width="226" height="227" xmlns="http://www.w3.org/2000/svg" xmlns:xlink="http://www.w3.org/1999/xlink" xml:space="preserve" overflow="hidden"><defs><clipPath id="clip0"><path d="M-185.901 235.49-74.2584 122.075 39.1571 233.718-72.4858 347.133Z" fill-rule="nonzero" clip-rule="nonzero"/></clipPath><clipPath id="clip1"><path d="M-185.901 235.49-74.2584 122.075 39.1571 233.718-72.4858 347.133Z" fill-rule="evenodd" clip-rule="evenodd"/></clipPath><clipPath id="clip2"><path d="M-185.901 235.49-74.2584 122.075 39.1571 233.718-72.4858 347.133Z" fill-rule="evenodd" clip-rule="evenodd"/></clipPath></defs><g transform="translate(186 -121)"><g><g clip-path="url(#clip0)"><g clip-path="url(#clip1)"><g clip-path="url(#clip2)"><path d="M-113.903 209.375C-109.741 205.833-104.515 203.782-99.0545 203.547-97.7546 203.496-96.4299 203.397-95.0806 203.251-88.4642 202.529-82.5701 197.775-78.1238 193.601L-77.5642 265.242-81.6184 271.133-81.4183 296.537-72.4465 283.502-63.2706 296.394-63.473 270.99-67.6194 265.166-68.1841 193.325C-63.6488 197.475-57.6009 202.272-50.8707 202.898-49.5897 203.015-48.3258 203.091-47.079 203.127-40.3787 203.337-34.0506 206.258-29.5429 211.219-28.3225 212.421-27.0475 213.713-25.8728 214.911-25.0267 215.777-24.2113 216.607-23.4752 217.344L-21.0944 219.715C-16.6514 224.407-11.8238 228.72-6.66207 232.607L-5.46691 233.433-9.44161 235.27-9.40025 235.311-63.0176 260.196-59.1059 265.691-3.36752 239.817C1.54119 242.858 7.67145 243.152 12.8485 240.594 16.1812 239.045 17.6272 235.088 16.0783 231.755 15.7186 230.981 15.2134 230.284 14.5902 229.701 12.5156 227.885 9.56189 227.472 7.06898 228.65 2.62475 230.407-3.67633 222.787-12.0607 211.866-20.9414 200.295-31.0065 187.182-44.85 183.262-48.9674 182.11-53.2485 181.654-57.5162 181.913-61.2225 182.323-64.9595 181.485-68.1357 179.532L-68.2875 179.449-68.4051 164.525-60.0123 164.459-73.4235 145.619-86.5422 164.662-78.3569 164.597-78.237 179.523-78.3876 179.608C-81.5337 181.612-85.2588 182.51-88.9728 182.159-93.2438 181.968-97.5165 182.492-101.615 183.708-115.399 187.849-125.262 201.114-133.951 212.824-142.166 223.877-148.344 231.602-152.819 229.907-155.287 228.782-158.185 229.203-160.23 230.985-162.922 233.498-163.066 237.717-160.553 240.409-159.947 241.057-159.218 241.578-158.408 241.942-153.191 244.418-147.066 244.027-142.206 240.909L-86.0696 265.902-82.246 260.347-140.069 234.366-138.954 233.571C-133.765 229.535-128.922 225.074-124.474 220.234L-122.292 217.978C-121.578 217.238-120.789 216.401-119.969 215.53-118.78 214.273-117.487 212.905-116.257 211.655-115.674 211.019-115.06 210.412-114.417 209.838Z" stroke="#83CBEB" stroke-width="1.65768" stroke-linecap="butt" stroke-linejoin="miter" stroke-miterlimit="4" stroke-opacity="1" fill="#E97132" fill-rule="nonzero" fill-opacity="1"/></g></g></g></g></g></svg>