<svg width="76" height="74" xmlns="http://www.w3.org/2000/svg" xmlns:xlink="http://www.w3.org/1999/xlink" xml:space="preserve" overflow="hidden"><defs><clipPath id="clip0"><path d="M108.745 253.322 145.111 216.379 182.054 252.745 145.688 289.688Z" fill-rule="nonzero" clip-rule="nonzero"/></clipPath><clipPath id="clip1"><path d="M108.745 253.322 145.111 216.379 182.054 252.745 145.688 289.688Z" fill-rule="evenodd" clip-rule="evenodd"/></clipPath><clipPath id="clip2"><path d="M108.745 253.322 145.111 216.379 182.054 252.745 145.688 289.688Z" fill-rule="evenodd" clip-rule="evenodd"/></clipPath></defs><g transform="translate(-108 -216)"><g><g clip-path="url(#clip0)"><g clip-path="url(#clip1)"><g clip-path="url(#clip2)"><path d="M132.197 244.815C133.553 243.662 135.255 242.993 137.034 242.917 137.458 242.9 137.889 242.868 138.329 242.82 140.484 242.585 142.404 241.037 143.852 239.677L144.034 263.013 142.714 264.932 142.779 273.207 145.701 268.961 148.69 273.16 148.624 264.885 147.274 262.988 147.09 239.587C148.567 240.939 150.537 242.502 152.729 242.706 153.146 242.743 153.558 242.768 153.964 242.78 156.147 242.849 158.208 243.8 159.676 245.416 160.074 245.807 160.489 246.228 160.872 246.619 161.147 246.901 161.413 247.171 161.653 247.411L162.428 248.183C163.875 249.712 165.448 251.117 167.129 252.383L167.519 252.652 166.224 253.25 166.237 253.264 148.773 261.369 150.047 263.159 168.202 254.731C169.801 255.722 171.798 255.818 173.485 254.984 174.57 254.48 175.041 253.191 174.537 252.105 174.419 251.853 174.255 251.626 174.052 251.436 173.376 250.845 172.414 250.71 171.602 251.094 170.154 251.666 168.102 249.184 165.371 245.627 162.478 241.858 159.2 237.586 154.69 236.31 153.349 235.934 151.955 235.786 150.564 235.87 149.357 236.004 148.14 235.731 147.105 235.094L147.056 235.068 147.018 230.206 149.751 230.185 145.383 224.048 141.11 230.251 143.776 230.23 143.815 235.092 143.766 235.119C142.741 235.772 141.528 236.064 140.318 235.95 138.927 235.888 137.535 236.059 136.2 236.455 131.71 237.804 128.498 242.124 125.667 245.939 122.991 249.539 120.979 252.055 119.521 251.503 118.717 251.137 117.774 251.274 117.107 251.854 116.231 252.673 116.184 254.047 117.002 254.924 117.2 255.135 117.437 255.305 117.701 255.423 119.4 256.23 121.395 256.103 122.978 255.087L141.264 263.228 142.509 261.419 123.674 252.956 124.038 252.697C125.728 251.382 127.305 249.929 128.754 248.352L129.465 247.617C129.697 247.377 129.955 247.104 130.222 246.82 130.609 246.411 131.03 245.965 131.431 245.558 131.621 245.351 131.821 245.153 132.03 244.966Z" fill="#000000" fill-rule="nonzero" fill-opacity="1"/></g></g></g></g></g></svg>