<svg width="109" height="110" xmlns="http://www.w3.org/2000/svg" xmlns:xlink="http://www.w3.org/1999/xlink" xml:space="preserve" overflow="hidden"><defs><clipPath id="clip0"><path d="M-120.751 247.787-66.9605 193.142-12.3154 246.933-66.1064 301.578Z" fill-rule="nonzero" clip-rule="nonzero"/></clipPath><clipPath id="clip1"><path d="M-120.751 247.787-66.9605 193.142-12.3154 246.933-66.1064 301.578Z" fill-rule="evenodd" clip-rule="evenodd"/></clipPath><clipPath id="clip2"><path d="M-120.751 247.787-66.9605 193.142-12.3154 246.933-66.1064 301.578Z" fill-rule="evenodd" clip-rule="evenodd"/></clipPath></defs><g transform="translate(121 -192)"><g><g clip-path="url(#clip0)"><g clip-path="url(#clip1)"><g clip-path="url(#clip2)"><path d="M-86.0619 235.205C-84.0564 233.498-81.5386 232.51-78.9076 232.397-78.2812 232.372-77.643 232.324-76.9929 232.254-73.805 231.906-70.9652 229.616-68.8229 227.604L-68.5533 262.122-70.5066 264.96-70.4102 277.2-66.0875 270.92-61.6664 277.131-61.7639 264.892-63.7617 262.085-64.0338 227.471C-61.8486 229.471-58.9347 231.782-55.692 232.084-55.0748 232.14-54.4658 232.177-53.8651 232.194-50.6368 232.296-47.5878 233.703-45.416 236.093-44.828 236.672-44.2136 237.295-43.6477 237.872-43.24 238.289-42.8471 238.689-42.4925 239.044L-41.3454 240.186C-39.2047 242.447-36.8787 244.525-34.3917 246.398L-33.8159 246.796-35.7309 247.681-35.711 247.701-61.5445 259.691-59.6598 262.338-32.8043 249.872C-30.4393 251.337-27.4856 251.479-24.9913 250.246-23.3855 249.5-22.6888 247.593-23.4351 245.988-23.6084 245.615-23.8518 245.279-24.1521 244.998-25.1517 244.123-26.5748 243.924-27.7759 244.491-29.9172 245.338-32.9531 241.667-36.9928 236.405-41.2717 230.83-46.1211 224.512-52.7911 222.623-54.775 222.068-56.8376 221.848-58.8939 221.973-60.6796 222.171-62.4802 221.767-64.0105 220.826L-64.0836 220.786-64.1403 213.595-60.0965 213.563-66.5582 204.486-72.879 213.661-68.9352 213.63-68.8774 220.822-68.95 220.862C-70.4658 221.828-72.2606 222.261-74.0501 222.091-76.1079 222-78.1665 222.252-80.1413 222.838-86.7824 224.833-91.5346 231.224-95.7211 236.866-99.6791 242.192-102.656 245.914-104.812 245.097-106.001 244.555-107.397 244.758-108.383 245.616-109.68 246.827-109.749 248.86-108.538 250.157-108.246 250.469-107.895 250.721-107.505 250.896-104.991 252.089-102.04 251.9-99.6986 250.398L-72.6513 262.44-70.809 259.764-98.669 247.246-98.1315 246.862C-95.6316 244.918-93.298 242.768-91.1548 240.436L-90.1038 239.349C-89.7598 238.993-89.3794 238.59-88.9846 238.17-88.4115 237.564-87.7887 236.905-87.1958 236.303-86.9151 235.997-86.6191 235.704-86.3092 235.427Z" fill="#156082" fill-rule="nonzero" fill-opacity="1"/></g></g></g></g></g></svg>